<svg version="1.1" xmlns="http://www.w3.org/2000/svg" xmlns:xlink="http://www.w3.org/1999/xlink" width="73.45004" height="73.99086" viewBox="0,0,73.45004,73.99086"><defs><linearGradient x1="288.95608" y1="161.09303" x2="289.05419" y2="161.09303" gradientUnits="userSpaceOnUse" id="color-1"><stop offset="0" stop-color="#3e2abd"/><stop offset="1" stop-color="#a8c5ff"/></linearGradient><radialGradient cx="320" cy="180.00002" r="29.90895" gradientUnits="userSpaceOnUse" id="color-2"><stop offset="0" stop-color="#070086" stop-opacity="0"/><stop offset="1" stop-color="#070086"/></radialGradient><linearGradient x1="319.99886" y1="172.94444" x2="319.99886" y2="187.05428" gradientTransform="translate(-990.56098,-600.27303) scale(3.27075,3.27075)" gradientUnits="userSpaceOnUse" id="color-3"><stop offset="0" stop-color="#c8c5ff"/><stop offset="1" stop-color="#564dff"/></linearGradient><linearGradient x1="319.99886" y1="172.94444" x2="319.99886" y2="187.05428" gradientTransform="translate(-990.56098,-600.27303) scale(3.27075,3.27075)" gradientUnits="userSpaceOnUse" id="color-4"><stop offset="0" stop-color="#ffffff"/><stop offset="1" stop-color="#a7a3ff"/></linearGradient></defs><g transform="translate(-283.275,-143.00458)"><g stroke-miterlimit="10"><path d="M319.99895,211.40442l-31.70243,-31.40335l31.70456,-31.40544l31.70241,31.40335z" fill="#000000" stroke="#83aaff" stroke-width="0"/><path d="M318.10909,209.90898l-32.97352,-29.90795l32.97573,-29.90995l32.97351,29.90795z" fill="none" stroke="#83aaff" stroke-width="2.5"/><path d="M321.88874,209.90898l-32.97352,-29.90795l32.97573,-29.90995l32.97352,29.90795z" fill="none" stroke="#83aaff" stroke-width="2.5"/><path d="M319.9992,209.90897l-23.92635,-29.90795l23.92797,-29.90995l23.92636,29.90795z" fill="#271fbd" stroke="#83aaff" stroke-width="2.5"/><path d="M288.95608,161.09303v0h0.0981v0z" fill="url(#color-1)" stroke="none" stroke-width="0"/><path d="M319.99915,214.88283l-25.60119,-34.88165l25.60293,-34.88398l25.60121,34.88165z" fill="none" stroke="#83aaff" stroke-width="2.5"/><path d="M319.99919,209.90897l-23.92635,-29.90795l23.92797,-29.90995l23.92636,29.90795z" fill="url(#color-2)" stroke="#83aaff" stroke-width="0"/><text transform="translate(302.85411,183.52748) scale(0.30574,0.30574)" font-size="40" xml:space="preserve" fill="url(#color-3)" stroke="url(#color-4)" stroke-width="1" font-family="&quot;Ulm Grotesk Regular&quot;, Sans Serif" font-weight="normal" text-anchor="start"><tspan x="0" dy="0">menu</tspan></text></g></g></svg>