<svg version="1.1" xmlns="http://www.w3.org/2000/svg" xmlns:xlink="http://www.w3.org/1999/xlink" width="2893.55782" height="237.23725" viewBox="0,0,2893.55782,237.23725"><defs><linearGradient x1="320" y1="249.61561" x2="320" y2="358.4985" gradientUnits="userSpaceOnUse" id="color-1"><stop offset="0" stop-color="#edf6ff" stop-opacity="0"/><stop offset="1" stop-color="#edf6ff"/></linearGradient><linearGradient x1="-644.51501" y1="251.11712" x2="-644.51501" y2="360" gradientUnits="userSpaceOnUse" id="color-2"><stop offset="0" stop-color="#edf6ff" stop-opacity="0"/><stop offset="1" stop-color="#edf6ff"/></linearGradient><linearGradient x1="1279.5" y1="249.61561" x2="1279.5" y2="358.4985" gradientUnits="userSpaceOnUse" id="color-3"><stop offset="0" stop-color="#edf6ff" stop-opacity="0"/><stop offset="1" stop-color="#edf6ff"/></linearGradient></defs><g transform="translate(1134.05782,-249.61561)"><g stroke="none" stroke-width="0" stroke-miterlimit="10"><path d="M-246.44445,379c0,55.14555 -40.3347,99.84985 -90.09009,99.84985c-49.75538,0 -90.09009,-44.7043 -90.09009,-99.84985c0,-55.14555 40.33471,-99.84985 90.09009,-99.84985c49.75539,0 90.09009,44.7043 90.09009,99.84985z" fill-opacity="0.17647" fill="#fafafa"/><path d="M-186.1586,391.50751c0,36.90191 -26.99089,66.81681 -60.28585,66.81681c-33.29495,0 -60.28585,-29.9149 -60.28585,-66.81681c0,-36.90191 26.99089,-66.81682 60.28585,-66.81682c33.29496,0 60.28585,29.91491 60.28585,66.81682z" fill-opacity="0.17647" fill="#fafafa"/><path d="M-98.56852,378.48949c0,36.90191 -26.9909,66.81682 -60.28585,66.81682c-33.29495,0 -60.28585,-29.91491 -60.28585,-66.81682c0,-36.90191 26.9909,-66.81682 60.28585,-66.81682c33.29495,0 60.28585,29.91491 60.28585,66.81682z" fill-opacity="0.17647" fill="#fafafa"/><path d="M-60.28023,371.38514c0,21.56066 -17.14225,39.03904 -38.28829,39.03904c-21.14604,0 -38.28829,-17.47838 -38.28829,-39.03904c0,-21.56066 17.14225,-39.03904 38.28829,-39.03904c21.14604,0 38.28829,17.47838 38.28829,39.03904z" fill-opacity="0.17647" fill="#fafafa"/><path d="M16.1036,395.40916c0,22.38992 -18.48674,40.54054 -41.29129,40.54054c-22.80455,0 -41.29129,-18.15062 -41.29129,-40.54054c0,-22.38992 18.48674,-40.54054 41.29129,-40.54054c22.80455,0 41.29129,18.15062 41.29129,40.54054z" fill-opacity="0.17647" fill="#fafafa"/><path d="M71.1036,371.38514c0,22.38992 -18.48674,40.54054 -41.29129,40.54054c-22.80455,0 -41.29129,-18.15062 -41.29129,-40.54054c0,-22.38992 18.48674,-40.54054 41.29129,-40.54054c22.80455,0 41.29129,18.15062 41.29129,40.54054z" fill-opacity="0.17647" fill="#fafafa"/><path d="M173.1036,379c0,22.38992 -18.48675,40.54054 -41.2913,40.54054c-22.80455,0 -41.29129,-18.15062 -41.29129,-40.54054c0,-22.38992 18.48674,-40.54054 41.29129,-40.54054c22.80455,0 41.2913,18.15062 41.2913,40.54054z" fill-opacity="0.17647" fill="#fafafa"/><path d="M279.1036,379c0,22.38992 -18.48675,40.54054 -41.29129,40.54054c-22.80455,0 -41.29129,-18.15062 -41.29129,-40.54054c0,-22.38992 18.48674,-40.54054 41.29129,-40.54054c22.80455,0 41.29129,18.15062 41.29129,40.54054z" fill-opacity="0.17647" fill="#fafafa"/><path d="M233.38945,419.54054c0,36.90191 -26.99089,66.81681 -60.28585,66.81681c-33.29495,0 -60.28585,-29.9149 -60.28585,-66.81681c0,-36.90191 26.9909,-66.81682 60.28585,-66.81682c33.29496,0 60.28585,29.91491 60.28585,66.81682z" fill-opacity="0.17647" fill="#fafafa"/><path d="M-953.87764,379.4955c0,55.14555 -40.33471,99.84985 -90.09009,99.84985c-49.75539,0 -90.09009,-44.7043 -90.09009,-99.84985c0,-55.14555 40.3347,-99.84985 90.09009,-99.84985c49.75538,0 90.09009,44.7043 90.09009,99.84985z" fill-opacity="0.17647" fill="#fafafa"/><path d="M-893.59179,392.00301c0,36.90191 -26.9909,66.81681 -60.28585,66.81681c-33.29496,0 -60.28585,-29.9149 -60.28585,-66.81681c0,-36.90191 26.9909,-66.81682 60.28585,-66.81682c33.29495,0 60.28585,29.91491 60.28585,66.81682z" fill-opacity="0.17647" fill="#fafafa"/><path d="M-806.0017,378.98499c0,36.90191 -26.9909,66.81682 -60.28585,66.81682c-33.29496,0 -60.28585,-29.91491 -60.28585,-66.81682c0,-36.90191 26.9909,-66.81682 60.28585,-66.81682c33.29495,0 60.28585,29.91491 60.28585,66.81682z" fill-opacity="0.17647" fill="#fafafa"/><path d="M-767.71341,371.88063c0,21.56066 -17.14225,39.03904 -38.28829,39.03904c-21.14604,0 -38.28829,-17.47838 -38.28829,-39.03904c0,-21.56066 17.14225,-39.03904 38.28829,-39.03904c21.14604,0 38.28829,17.47838 38.28829,39.03904z" fill-opacity="0.17647" fill="#fafafa"/><path d="M-691.32958,395.90466c0,22.38992 -18.48674,40.54054 -41.29129,40.54054c-22.80455,0 -41.29129,-18.15062 -41.29129,-40.54054c0,-22.38992 18.48674,-40.54054 41.29129,-40.54054c22.80455,0 41.29129,18.15062 41.29129,40.54054z" fill-opacity="0.17647" fill="#fafafa"/><path d="M-636.32958,371.88063c0,22.38992 -18.48674,40.54054 -41.29129,40.54054c-22.80455,0 -41.29129,-18.15062 -41.29129,-40.54054c0,-22.38992 18.48674,-40.54054 41.29129,-40.54054c22.80455,0 41.29129,18.15062 41.29129,40.54054z" fill-opacity="0.17647" fill="#fafafa"/><path d="M-534.32958,379.4955c0,22.38992 -18.48675,40.54054 -41.29129,40.54054c-22.80455,0 -41.29129,-18.15062 -41.29129,-40.54054c0,-22.38992 18.48674,-40.54054 41.29129,-40.54054c22.80455,0 41.29129,18.15062 41.29129,40.54054z" fill-opacity="0.17647" fill="#fafafa"/><path d="M-428.32958,379.4955c0,22.38992 -18.48674,40.54054 -41.29129,40.54054c-22.80455,0 -41.29129,-18.15062 -41.29129,-40.54054c0,-22.38992 18.48674,-40.54054 41.29129,-40.54054c22.80455,0 41.29129,18.15062 41.29129,40.54054z" fill-opacity="0.17647" fill="#fafafa"/><path d="M-474.04373,420.03604c0,36.90191 -26.9909,66.81682 -60.28585,66.81682c-33.29495,0 -60.28585,-29.91491 -60.28585,-66.81682c0,-36.90191 26.9909,-66.81682 60.28585,-66.81682c33.29495,0 60.28585,29.91491 60.28585,66.81682z" fill-opacity="0.17647" fill="#fafafa"/><path d="M459.53077,378.48949c0,55.14555 -40.3347,99.84985 -90.09009,99.84985c-49.75539,0 -90.09009,-44.7043 -90.09009,-99.84985c0,-55.14555 40.3347,-99.84985 90.09009,-99.84985c49.75539,0 90.09009,44.7043 90.09009,99.84985z" fill-opacity="0.17647" fill="#fafafa"/><path d="M519.81662,390.997c0,36.90191 -26.9909,66.81682 -60.28585,66.81682c-33.29495,0 -60.28585,-29.91491 -60.28585,-66.81682c0,-36.90191 26.9909,-66.81682 60.28585,-66.81682c33.29495,0 60.28585,29.91491 60.28585,66.81682z" fill-opacity="0.17647" fill="#fafafa"/><path d="M607.40671,377.97898c0,36.90191 -26.99089,66.81682 -60.28585,66.81682c-33.29495,0 -60.28585,-29.91491 -60.28585,-66.81682c0,-36.90191 26.9909,-66.81682 60.28585,-66.81682c33.29496,0 60.28585,29.91491 60.28585,66.81682z" fill-opacity="0.17647" fill="#fafafa"/><path d="M645.695,370.87462c0,21.56066 -17.14225,39.03904 -38.28829,39.03904c-21.14604,0 -38.28828,-17.47838 -38.28828,-39.03904c0,-21.56066 17.14225,-39.03904 38.28828,-39.03904c21.14604,0 38.28829,17.47838 38.28829,39.03904z" fill-opacity="0.17647" fill="#fafafa"/><path d="M722.07883,394.89865c0,22.38992 -18.48674,40.54054 -41.29129,40.54054c-22.80455,0 -41.29129,-18.15062 -41.29129,-40.54054c0,-22.38992 18.48674,-40.54054 41.29129,-40.54054c22.80455,0 41.29129,18.15062 41.29129,40.54054z" fill-opacity="0.17647" fill="#fafafa"/><path d="M777.07883,370.87462c0,22.38992 -18.48674,40.54054 -41.29129,40.54054c-22.80455,0 -41.29129,-18.15062 -41.29129,-40.54054c0,-22.38992 18.48674,-40.54054 41.29129,-40.54054c22.80455,0 41.29129,18.15062 41.29129,40.54054z" fill-opacity="0.17647" fill="#fafafa"/><path d="M879.07883,378.48949c0,22.38992 -18.48674,40.54054 -41.29129,40.54054c-22.80455,0 -41.29129,-18.15062 -41.29129,-40.54054c0,-22.38992 18.48674,-40.54054 41.29129,-40.54054c22.80455,0 41.29129,18.15062 41.29129,40.54054z" fill-opacity="0.17647" fill="#fafafa"/><path d="M985.07883,378.48949c0,22.38992 -18.48674,40.54054 -41.29129,40.54054c-22.80455,0 -41.29129,-18.15062 -41.29129,-40.54054c0,-22.38992 18.48674,-40.54054 41.29129,-40.54054c22.80455,0 41.29129,18.15062 41.29129,40.54054z" fill-opacity="0.17647" fill="#fafafa"/><path d="M939.36468,419.03003c0,36.90191 -26.99089,66.81681 -60.28585,66.81681c-33.29495,0 -60.28585,-29.9149 -60.28585,-66.81681c0,-36.90191 26.99089,-66.81682 60.28585,-66.81682c33.29495,0 60.28585,29.91491 60.28585,66.81682z" fill-opacity="0.17647" fill="#fafafa"/><path d="M131.43843,374c0,55.14555 -40.3347,99.84985 -90.09009,99.84985c-49.75538,0 -90.09009,-44.7043 -90.09009,-99.84985c0,-55.14555 40.33471,-99.84985 90.09009,-99.84985c49.75539,0 90.09009,44.7043 90.09009,99.84985z" fill="#fafafa"/><path d="M191.72428,386.50751c0,36.90191 -26.99089,66.81681 -60.28585,66.81681c-33.29495,0 -60.28585,-29.9149 -60.28585,-66.81681c0,-36.90191 26.99089,-66.81682 60.28585,-66.81682c33.29496,0 60.28585,29.91491 60.28585,66.81682z" fill="#fafafa"/><path d="M279.31436,373.48949c0,36.90191 -26.9909,66.81682 -60.28585,66.81682c-33.29495,0 -60.28585,-29.91491 -60.28585,-66.81682c0,-36.90191 26.9909,-66.81682 60.28585,-66.81682c33.29495,0 60.28585,29.91491 60.28585,66.81682z" fill="#fafafa"/><path d="M317.60265,366.38514c0,21.56066 -17.14225,39.03904 -38.28829,39.03904c-21.14604,0 -38.28829,-17.47838 -38.28829,-39.03904c0,-21.56066 17.14225,-39.03904 38.28829,-39.03904c21.14604,0 38.28829,17.47838 38.28829,39.03904z" fill="#fafafa"/><path d="M393.98648,390.40916c0,22.38992 -18.48674,40.54054 -41.29129,40.54054c-22.80455,0 -41.29129,-18.15062 -41.29129,-40.54054c0,-22.38992 18.48674,-40.54054 41.29129,-40.54054c22.80455,0 41.29129,18.15062 41.29129,40.54054z" fill="#fafafa"/><path d="M448.98648,366.38514c0,22.38992 -18.48674,40.54054 -41.29129,40.54054c-22.80455,0 -41.29129,-18.15062 -41.29129,-40.54054c0,-22.38992 18.48674,-40.54054 41.29129,-40.54054c22.80455,0 41.29129,18.15062 41.29129,40.54054z" fill="#fafafa"/><path d="M550.98648,374c0,22.38992 -18.48675,40.54054 -41.2913,40.54054c-22.80455,0 -41.29129,-18.15062 -41.29129,-40.54054c0,-22.38992 18.48674,-40.54054 41.29129,-40.54054c22.80455,0 41.2913,18.15062 41.2913,40.54054z" fill="#fafafa"/><path d="M656.98648,374c0,22.38992 -18.48675,40.54054 -41.29129,40.54054c-22.80455,0 -41.29129,-18.15062 -41.29129,-40.54054c0,-22.38992 18.48674,-40.54054 41.29129,-40.54054c22.80455,0 41.29129,18.15062 41.29129,40.54054z" fill="#fafafa"/><path d="M611.27233,414.54054c0,36.90191 -26.99089,66.81681 -60.28585,66.81681c-33.29495,0 -60.28585,-29.9149 -60.28585,-66.81681c0,-36.90191 26.9909,-66.81682 60.28585,-66.81682c33.29496,0 60.28585,29.91491 60.28585,66.81682z" fill="#fafafa"/><path d="M-575.99476,374.4955c0,55.14555 -40.33471,99.84985 -90.09009,99.84985c-49.75539,0 -90.09009,-44.7043 -90.09009,-99.84985c0,-55.14555 40.3347,-99.84985 90.09009,-99.84985c49.75538,0 90.09009,44.7043 90.09009,99.84985z" fill="#fafafa"/><path d="M-515.70891,387.00301c0,36.90191 -26.9909,66.81681 -60.28585,66.81681c-33.29496,0 -60.28585,-29.9149 -60.28585,-66.81681c0,-36.90191 26.9909,-66.81682 60.28585,-66.81682c33.29495,0 60.28585,29.91491 60.28585,66.81682z" fill="#fafafa"/><path d="M-428.11882,373.98499c0,36.90191 -26.9909,66.81682 -60.28585,66.81682c-33.29496,0 -60.28585,-29.91491 -60.28585,-66.81682c0,-36.90191 26.9909,-66.81682 60.28585,-66.81682c33.29495,0 60.28585,29.91491 60.28585,66.81682z" fill="#fafafa"/><path d="M-389.83053,366.88063c0,21.56066 -17.14225,39.03904 -38.28829,39.03904c-21.14604,0 -38.28829,-17.47838 -38.28829,-39.03904c0,-21.56066 17.14225,-39.03904 38.28829,-39.03904c21.14604,0 38.28829,17.47838 38.28829,39.03904z" fill="#fafafa"/><path d="M-313.4467,390.90466c0,22.38992 -18.48674,40.54054 -41.29129,40.54054c-22.80455,0 -41.29129,-18.15062 -41.29129,-40.54054c0,-22.38992 18.48674,-40.54054 41.29129,-40.54054c22.80455,0 41.29129,18.15062 41.29129,40.54054z" fill="#fafafa"/><path d="M-258.4467,366.88063c0,22.38992 -18.48674,40.54054 -41.29129,40.54054c-22.80455,0 -41.29129,-18.15062 -41.29129,-40.54054c0,-22.38992 18.48674,-40.54054 41.29129,-40.54054c22.80455,0 41.29129,18.15062 41.29129,40.54054z" fill="#fafafa"/><path d="M-156.4467,374.4955c0,22.38992 -18.48675,40.54054 -41.29129,40.54054c-22.80455,0 -41.29129,-18.15062 -41.29129,-40.54054c0,-22.38992 18.48674,-40.54054 41.29129,-40.54054c22.80455,0 41.29129,18.15062 41.29129,40.54054z" fill="#fafafa"/><path d="M-50.4467,374.4955c0,22.38992 -18.48674,40.54054 -41.29129,40.54054c-22.80455,0 -41.29129,-18.15062 -41.29129,-40.54054c0,-22.38992 18.48674,-40.54054 41.29129,-40.54054c22.80455,0 41.29129,18.15062 41.29129,40.54054z" fill="#fafafa"/><path d="M-96.16085,415.03604c0,36.90191 -26.9909,66.81682 -60.28585,66.81682c-33.29495,0 -60.28585,-29.91491 -60.28585,-66.81682c0,-36.90191 26.9909,-66.81682 60.28585,-66.81682c33.29495,0 60.28585,29.91491 60.28585,66.81682z" fill="#fafafa"/><path d="M837.41365,373.48949c0,55.14555 -40.3347,99.84985 -90.09009,99.84985c-49.75539,0 -90.09009,-44.7043 -90.09009,-99.84985c0,-55.14555 40.3347,-99.84985 90.09009,-99.84985c49.75539,0 90.09009,44.7043 90.09009,99.84985z" fill="#fafafa"/><path d="M897.6995,385.997c0,36.90191 -26.9909,66.81682 -60.28585,66.81682c-33.29495,0 -60.28585,-29.91491 -60.28585,-66.81682c0,-36.90191 26.9909,-66.81682 60.28585,-66.81682c33.29495,0 60.28585,29.91491 60.28585,66.81682z" fill="#fafafa"/><path d="M985.28959,372.97898c0,36.90191 -26.99089,66.81682 -60.28585,66.81682c-33.29495,0 -60.28585,-29.91491 -60.28585,-66.81682c0,-36.90191 26.9909,-66.81682 60.28585,-66.81682c33.29496,0 60.28585,29.91491 60.28585,66.81682z" fill="#fafafa"/><path d="M1023.57788,365.87462c0,21.56066 -17.14225,39.03904 -38.28829,39.03904c-21.14604,0 -38.28828,-17.47838 -38.28828,-39.03904c0,-21.56066 17.14225,-39.03904 38.28828,-39.03904c21.14604,0 38.28829,17.47838 38.28829,39.03904z" fill="#fafafa"/><path d="M1099.96171,389.89865c0,22.38992 -18.48674,40.54054 -41.29129,40.54054c-22.80455,0 -41.29129,-18.15062 -41.29129,-40.54054c0,-22.38992 18.48674,-40.54054 41.29129,-40.54054c22.80455,0 41.29129,18.15062 41.29129,40.54054z" fill="#fafafa"/><path d="M1154.96171,365.87462c0,22.38992 -18.48674,40.54054 -41.29129,40.54054c-22.80455,0 -41.29129,-18.15062 -41.29129,-40.54054c0,-22.38992 18.48674,-40.54054 41.29129,-40.54054c22.80455,0 41.29129,18.15062 41.29129,40.54054z" fill="#fafafa"/><path d="M1256.96171,373.48949c0,22.38992 -18.48674,40.54054 -41.29129,40.54054c-22.80455,0 -41.29129,-18.15062 -41.29129,-40.54054c0,-22.38992 18.48674,-40.54054 41.29129,-40.54054c22.80455,0 41.29129,18.15062 41.29129,40.54054z" fill="#fafafa"/><path d="M1362.96171,373.48949c0,22.38992 -18.48674,40.54054 -41.29129,40.54054c-22.80455,0 -41.29129,-18.15062 -41.29129,-40.54054c0,-22.38992 18.48674,-40.54054 41.29129,-40.54054c22.80455,0 41.29129,18.15062 41.29129,40.54054z" fill="#fafafa"/><path d="M1317.24756,414.03003c0,36.90191 -26.99089,66.81681 -60.28585,66.81681c-33.29495,0 -60.28585,-29.9149 -60.28585,-66.81681c0,-36.90191 26.99089,-66.81682 60.28585,-66.81682c33.29495,0 60.28585,29.91491 60.28585,66.81682z" fill="#fafafa"/><path d="M-160,358.4985v-108.88288h960v108.88288z" fill="url(#color-1)"/><path d="M-1129.53003,360v-108.88288h970.03003v108.88288z" fill="url(#color-2)"/><path d="M799.5,358.4985v-108.88288h960v108.88288z" fill="url(#color-3)"/></g></g></svg>