<svg version="1.1" xmlns="http://www.w3.org/2000/svg" xmlns:xlink="http://www.w3.org/1999/xlink" width="123.49859" height="112.45455" viewBox="0,0,123.49859,112.45455"><defs><linearGradient x1="305.8499" y1="-89.99998" x2="334.15011" y2="450.00001" gradientUnits="userSpaceOnUse" id="color-1"><stop offset="0" stop-color="#bbd1e5"/><stop offset="0.4717" stop-color="#e5f3ff"/><stop offset="0.48113" stop-color="#d0e9ff"/><stop offset="1" stop-color="#bddaf5"/></linearGradient><linearGradient x1="320" y1="124.77274" x2="320" y2="235.22731" gradientUnits="userSpaceOnUse" id="color-2"><stop offset="0" stop-color="#b4b4b4"/><stop offset="1" stop-color="#d6d6d6"/></linearGradient><linearGradient x1="320" y1="124.77274" x2="320" y2="235.22731" gradientUnits="userSpaceOnUse" id="color-3"><stop offset="0" stop-color="#717171"/><stop offset="1" stop-color="#969696"/></linearGradient><linearGradient x1="319.625" y1="128.80001" x2="319.625" y2="185.30001" gradientUnits="userSpaceOnUse" id="color-4"><stop offset="0" stop-color="#ffffff" stop-opacity="0"/><stop offset="1" stop-color="#ffffff" stop-opacity="0.17647"/></linearGradient></defs><g transform="translate(-258.25,-123.77275)"><g stroke-miterlimit="10"><path d="M259.71022,235.22731c0,0 -0.46022,-8.8804 -0.46022,-15.64773c0,-22.17282 0,-66.46519 0,-79.15909c0,-5.52273 0.46022,-15.64773 0.46022,-15.64773c0,0 6.84155,0 13.80682,0c13.28541,0 92.21826,0 92.96591,0c10.48242,0 14.26704,0 14.26704,0c0,0 -0.46022,8.67666 -0.46022,15.1875c0,22.381 0,68.94988 0,82.38069c0,6.30099 0.46022,12.88636 0.46022,12.88636c0,0 -6.05903,0 -14.72728,0c-26.25913,0 -80.68643,0 -92.9659,0c-4.55771,0 -13.3466,0 -13.3466,0z" fill="url(#color-1)" stroke="url(#color-2)" stroke-width="0" stroke-linejoin="bevel"/><path d="M259.71022,235.22731c0,0 -0.46022,-8.8804 -0.46022,-15.64773c0,-22.17282 0,-66.46519 0,-79.15909c0,-5.52273 0.46022,-15.64773 0.46022,-15.64773c0,0 6.84155,0 13.80682,0c13.28541,0 92.21826,0 92.96591,0c10.48242,0 14.26704,0 14.26704,0c0,0 -0.46022,8.67666 -0.46022,15.1875c0,22.381 0,68.94988 0,82.38069c0,6.30099 0.46022,12.88636 0.46022,12.88636c0,0 -6.05903,0 -14.72728,0c-26.25913,0 -80.68643,0 -92.9659,0c-4.55771,0 -13.3466,0 -13.3466,0z" fill-opacity="0.29804" fill="#848484" stroke="url(#color-3)" stroke-width="2" stroke-linejoin="bevel"/><text transform="translate(265.52236,200.07034) scale(0.33215,0.33215)" font-size="40" xml:space="preserve" fill="#3d4c58" stroke="none" stroke-width="1" stroke-linejoin="miter" font-family="&quot;Ulm Grotesk Regular&quot;, Sans Serif" font-weight="normal" text-anchor="start"><tspan x="0" dy="0">title</tspan></text><text transform="translate(265.9845,205.12459) scale(0.17604,0.17604)" font-size="40" xml:space="preserve" fill="#3d4c58" stroke="none" stroke-width="1" stroke-linejoin="miter" font-family="&quot;Ulm Grotesk Regular&quot;, Sans Serif" font-weight="normal" text-anchor="start"><tspan x="0" dy="0">year - creator</tspan></text><path d="M263.9,231.64815v-21.6h112.2v21.6z" fill-opacity="0.42745" fill="#ffffff" stroke-opacity="0.2" stroke="#000000" stroke-width="0.5" stroke-linejoin="miter"/><text transform="translate(265.52236,215.02835) scale(0.10092,0.10092)" font-size="40" xml:space="preserve" fill="#212325" stroke="none" stroke-width="1" stroke-linejoin="miter" font-family="&quot;Ulm Grotesk Regular&quot;, Sans Serif" font-weight="normal" text-anchor="start"><tspan x="0" dy="0">Lorem Ipsum is simply dummy text of the printing</tspan><tspan x="0" dy="46.150000000000006px">and typesetting industry. Lorem Ipsum has been</tspan><tspan x="0" dy="46.150000000000006px">the industry's standard dummy text ever since </tspan><tspan x="0" dy="46.150000000000006px">the 1500s, when an unknown printer took a galley... </tspan></text><path d="M263.625,185.30001v-56.5h112v56.5z" fill="#000000" stroke="none" stroke-width="NaN" stroke-linejoin="miter"/><path d="M263.625,185.30001v-56.5h112v56.5z" fill="url(#color-4)" stroke="none" stroke-width="NaN" stroke-linejoin="miter"/><text transform="translate(265.27034,136.05246) scale(0.17314,0.17314)" font-size="40" xml:space="preserve" fill="#e3f1ff" stroke="none" stroke-width="1" stroke-linejoin="miter" font-family="Archivo" font-weight="normal" text-anchor="start"><tspan x="0" dy="0">placeholder thumbnail</tspan><tspan x="0" dy="46.15px">640x360</tspan></text></g></g></svg>