<svg version="1.1" xmlns="http://www.w3.org/2000/svg" xmlns:xlink="http://www.w3.org/1999/xlink" width="709.33334" height="38.08334" viewBox="0,0,709.33334,38.08334"><defs><linearGradient x1="331.58332" y1="161.04166" x2="331.58332" y2="199.04166" gradientUnits="userSpaceOnUse" id="color-1"><stop offset="0" stop-color="#bababa"/><stop offset="1" stop-color="#454545"/></linearGradient></defs><g transform="translate(34.66667,-160.95833)"><g stroke="none" stroke-width="0" stroke-miterlimit="10"><path d="M-11.50001,199.04166l-23.16666,-38.08333c0,0 166.64529,0 273.63653,0c120.19175,0 417.86348,0 417.86348,0l17.83333,38.08334z" fill="url(#color-1)"/><path d="M207.01841,164.85702c0,0 -11.52442,10.81018 -10.48258,12.08578c0.43218,0.52914 10.2367,11.61872 10.2367,11.61872l-134.63848,0.07746l-11.4635,-11.94414l11.36325,-12.03386z" fill="#11111b"/><path d="M264.01841,165.0237c0,0 -6.08039,10.81018 -5.53071,12.08578c0.22802,0.52914 5.40098,11.61872 5.40098,11.61872l-71.03655,0.07746l-6.04825,-11.94414l5.99536,-12.03386z" fill="#181825"/><path d="M320.94698,164.85702c0,0 4.66961,10.81018 5.21929,12.08578c0.22802,0.52914 -5.34902,11.61872 -5.34902,11.61872l-12.82544,0.24414l-6.04825,-11.94414l5.99536,-12.03386z" fill="#b4befe"/><path d="M303.44698,164.85702c0,0 -6.08039,10.81018 -5.53071,12.08578c0.22802,0.52914 5.40098,11.61872 5.40098,11.61872l-71.03655,0.07746l-6.04825,-11.94414l5.99536,-12.03386z" fill="#b4befe"/><path d="M87.35175,165.0237c0,0 -6.08039,10.81018 -5.53071,12.08578c0.22802,0.52914 5.40098,11.61872 5.40098,11.61872l-71.03655,0.07746l-6.04825,-11.94414l5.99536,-12.03386z" fill="#181825"/><path d="M453.05718,164.66098l5.99536,12.03386l-6.04825,11.94414l-71.03655,-0.07746c0,0 5.17296,-11.08958 5.40098,-11.61872c0.54968,-1.2756 -5.53071,-12.08578 -5.53071,-12.08578z" fill="#181825"/><path d="M409.72385,164.82766l5.99536,12.03386l-6.04825,11.94414l-71.03655,-0.07746c0,0 5.17296,-11.08958 5.40098,-11.61872c0.54968,-1.2756 -5.53071,-12.08578 -5.53071,-12.08578z" fill="#1e1e2e"/><path d="M367.36829,164.82766l5.99536,12.03386l-6.04825,11.94414l-41.32544,-0.07746c0,0 5.17296,-11.0896 5.40098,-11.61872c0.54969,-1.27558 -5.53071,-12.08576 -5.53071,-12.08576z" fill="#b4befe"/><path d="M577.65254,165.40704c0,0 -6.08039,10.81018 -5.53071,12.08578c0.22802,0.52914 5.40098,11.61872 5.40098,11.61872l-71.03655,0.07746l-6.04825,-11.94414l5.99536,-12.03386z" fill="#181825"/><path d="M611.45254,165.40704c0,0 -6.08039,10.81018 -5.53071,12.08578c0.22802,0.52914 5.40098,11.61872 5.40098,11.61872l-71.03655,0.07746l-6.04825,-11.94414l5.99536,-12.03386z" fill="#1e1e2e"/><path d="M645.65254,165.40704c0,0 -6.08039,10.81018 -5.53071,12.08578c0.22802,0.52914 5.40098,11.61872 5.40098,11.61872l-71.03655,0.07746l-6.04825,-11.94414l5.99536,-12.03386z" fill="#313244"/><path d="M478.83333,187.9v0h-0.4v0z" fill="#09090c"/><path d="M-5.65552,193.2v-32h653.85552v32z" fill="#09090c"/></g></g></svg>