<svg version="1.1" xmlns="http://www.w3.org/2000/svg" xmlns:xlink="http://www.w3.org/1999/xlink" width="156.32346" height="61.62173" viewBox="0,0,156.32346,61.62173"><defs><linearGradient x1="316.09778" y1="149.8728" x2="323.90223" y2="210.1272" gradientUnits="userSpaceOnUse" id="color-1"><stop offset="0.00943" stop-color="#d1d1d1"/><stop offset="0.44104" stop-color="#ffffff"/><stop offset="0.48113" stop-color="#d1d1d1"/><stop offset="1" stop-color="#f5f5f5"/></linearGradient><linearGradient x1="320" y1="149.87279" x2="320" y2="210.12719" gradientUnits="userSpaceOnUse" id="color-2"><stop offset="0" stop-color="#00f408" stop-opacity="0.4902"/><stop offset="1" stop-color="#2d702e" stop-opacity="0.73333"/></linearGradient><linearGradient x1="320" y1="165.10209" x2="320" y2="189.10209" gradientTransform="translate(-533.86004,-366.20417) scale(2,2)" gradientUnits="userSpaceOnUse" id="color-3"><stop offset="0" stop-color="#ffffff"/><stop offset="1" stop-color="#c6c6c6"/></linearGradient></defs><g transform="translate(-241.83827,-149.25546)"><g stroke-miterlimit="10"><path d="M244.21005,208.26084c-2.12866,-1.90871 -1.55,-5.84616 -1.55,-5.84616v-45.23884c0,0 -0.49067,-3.64232 2.15,-5.64329c2.64067,-2.00098 7.225,-1.46063 7.225,-1.46063l136.25099,-0.19234c0,0 3.99854,-0.22687 6.6383,1.94278c2.63975,2.16965 2.48571,5.55635 2.48571,5.55635l-0.08333,44.90073c0,0 0.52416,3.52179 -2.01667,5.57567c-2.54083,2.05388 -7.69167,2.27209 -7.69167,2.27209l-136.58333,-0.20286c0,0 -4.69634,0.24522 -6.825,-1.66349z" fill="url(#color-1)" stroke="#235f25" stroke-width="0" stroke-linecap="round" stroke-linejoin="bevel"/><path d="M244.21005,208.26084c-2.12866,-1.90871 -1.55,-5.84616 -1.55,-5.84616v-45.23884c0,0 -0.49067,-3.64232 2.15,-5.64329c2.64067,-2.00098 7.225,-1.46063 7.225,-1.46063l136.25099,-0.19234c0,0 3.99854,-0.22687 6.6383,1.94278c2.63975,2.16965 2.48571,5.55635 2.48571,5.55635l-0.08333,44.90073c0,0 0.52416,3.52179 -2.01667,5.57567c-2.54083,2.05388 -7.69167,2.27209 -7.69167,2.27209l-136.58333,-0.20286c0,0 -4.69634,0.24522 -6.825,-1.66349z" fill="url(#color-2)" stroke="#235f25" stroke-width="1.5" stroke-linecap="round" stroke-linejoin="bevel"/><text transform="translate(266.93002,183.10209) scale(0.5,0.5)" font-size="40" xml:space="preserve" fill="url(#color-3)" stroke="#d4d4d4" stroke-width="1" stroke-linecap="butt" stroke-linejoin="miter" font-family="&quot;Ulm Grotesk Regular&quot;, Sans Serif" font-weight="normal" text-anchor="start"><tspan x="0" dy="0">play video</tspan></text></g></g></svg>