<svg version="1.1" xmlns="http://www.w3.org/2000/svg" xmlns:xlink="http://www.w3.org/1999/xlink" width="2119.13665" height="208.21322" viewBox="0,0,2119.13665,208.21322"><g transform="translate(756.17494,-273.63964)"><g fill="#fafafa" stroke="none" stroke-width="0" stroke-miterlimit="10"><path d="M131.43843,374c0,55.14555 -40.3347,99.84985 -90.09009,99.84985c-49.75538,0 -90.09009,-44.7043 -90.09009,-99.84985c0,-55.14555 40.33471,-99.84985 90.09009,-99.84985c49.75539,0 90.09009,44.7043 90.09009,99.84985z"/><path d="M191.72428,386.50751c0,36.90191 -26.99089,66.81681 -60.28585,66.81681c-33.29495,0 -60.28585,-29.9149 -60.28585,-66.81681c0,-36.90191 26.99089,-66.81682 60.28585,-66.81682c33.29496,0 60.28585,29.91491 60.28585,66.81682z"/><path d="M279.31436,373.48949c0,36.90191 -26.9909,66.81682 -60.28585,66.81682c-33.29495,0 -60.28585,-29.91491 -60.28585,-66.81682c0,-36.90191 26.9909,-66.81682 60.28585,-66.81682c33.29495,0 60.28585,29.91491 60.28585,66.81682z"/><path d="M317.60265,366.38514c0,21.56066 -17.14225,39.03904 -38.28829,39.03904c-21.14604,0 -38.28829,-17.47838 -38.28829,-39.03904c0,-21.56066 17.14225,-39.03904 38.28829,-39.03904c21.14604,0 38.28829,17.47838 38.28829,39.03904z"/><path d="M393.98648,390.40916c0,22.38992 -18.48674,40.54054 -41.29129,40.54054c-22.80455,0 -41.29129,-18.15062 -41.29129,-40.54054c0,-22.38992 18.48674,-40.54054 41.29129,-40.54054c22.80455,0 41.29129,18.15062 41.29129,40.54054z"/><path d="M448.98648,366.38514c0,22.38992 -18.48674,40.54054 -41.29129,40.54054c-22.80455,0 -41.29129,-18.15062 -41.29129,-40.54054c0,-22.38992 18.48674,-40.54054 41.29129,-40.54054c22.80455,0 41.29129,18.15062 41.29129,40.54054z"/><path d="M550.98648,374c0,22.38992 -18.48675,40.54054 -41.2913,40.54054c-22.80455,0 -41.29129,-18.15062 -41.29129,-40.54054c0,-22.38992 18.48674,-40.54054 41.29129,-40.54054c22.80455,0 41.2913,18.15062 41.2913,40.54054z"/><path d="M656.98648,374c0,22.38992 -18.48675,40.54054 -41.29129,40.54054c-22.80455,0 -41.29129,-18.15062 -41.29129,-40.54054c0,-22.38992 18.48674,-40.54054 41.29129,-40.54054c22.80455,0 41.29129,18.15062 41.29129,40.54054z"/><path d="M611.27233,414.54054c0,36.90191 -26.99089,66.81681 -60.28585,66.81681c-33.29495,0 -60.28585,-29.9149 -60.28585,-66.81681c0,-36.90191 26.9909,-66.81682 60.28585,-66.81682c33.29496,0 60.28585,29.91491 60.28585,66.81682z"/><path d="M-575.99476,374.4955c0,55.14555 -40.33471,99.84985 -90.09009,99.84985c-49.75539,0 -90.09009,-44.7043 -90.09009,-99.84985c0,-55.14555 40.3347,-99.84985 90.09009,-99.84985c49.75538,0 90.09009,44.7043 90.09009,99.84985z"/><path d="M-515.70891,387.00301c0,36.90191 -26.9909,66.81681 -60.28585,66.81681c-33.29496,0 -60.28585,-29.9149 -60.28585,-66.81681c0,-36.90191 26.9909,-66.81682 60.28585,-66.81682c33.29495,0 60.28585,29.91491 60.28585,66.81682z"/><path d="M-428.11882,373.98499c0,36.90191 -26.9909,66.81682 -60.28585,66.81682c-33.29496,0 -60.28585,-29.91491 -60.28585,-66.81682c0,-36.90191 26.9909,-66.81682 60.28585,-66.81682c33.29495,0 60.28585,29.91491 60.28585,66.81682z"/><path d="M-389.83053,366.88063c0,21.56066 -17.14225,39.03904 -38.28829,39.03904c-21.14604,0 -38.28829,-17.47838 -38.28829,-39.03904c0,-21.56066 17.14225,-39.03904 38.28829,-39.03904c21.14604,0 38.28829,17.47838 38.28829,39.03904z"/><path d="M-313.4467,390.90466c0,22.38992 -18.48674,40.54054 -41.29129,40.54054c-22.80455,0 -41.29129,-18.15062 -41.29129,-40.54054c0,-22.38992 18.48674,-40.54054 41.29129,-40.54054c22.80455,0 41.29129,18.15062 41.29129,40.54054z"/><path d="M-258.4467,366.88063c0,22.38992 -18.48674,40.54054 -41.29129,40.54054c-22.80455,0 -41.29129,-18.15062 -41.29129,-40.54054c0,-22.38992 18.48674,-40.54054 41.29129,-40.54054c22.80455,0 41.29129,18.15062 41.29129,40.54054z"/><path d="M-156.4467,374.4955c0,22.38992 -18.48675,40.54054 -41.29129,40.54054c-22.80455,0 -41.29129,-18.15062 -41.29129,-40.54054c0,-22.38992 18.48674,-40.54054 41.29129,-40.54054c22.80455,0 41.29129,18.15062 41.29129,40.54054z"/><path d="M-50.4467,374.4955c0,22.38992 -18.48674,40.54054 -41.29129,40.54054c-22.80455,0 -41.29129,-18.15062 -41.29129,-40.54054c0,-22.38992 18.48674,-40.54054 41.29129,-40.54054c22.80455,0 41.29129,18.15062 41.29129,40.54054z"/><path d="M-96.16085,415.03604c0,36.90191 -26.9909,66.81682 -60.28585,66.81682c-33.29495,0 -60.28585,-29.91491 -60.28585,-66.81682c0,-36.90191 26.9909,-66.81682 60.28585,-66.81682c33.29495,0 60.28585,29.91491 60.28585,66.81682z"/><path d="M837.41365,373.48949c0,55.14555 -40.3347,99.84985 -90.09009,99.84985c-49.75539,0 -90.09009,-44.7043 -90.09009,-99.84985c0,-55.14555 40.3347,-99.84985 90.09009,-99.84985c49.75539,0 90.09009,44.7043 90.09009,99.84985z"/><path d="M897.6995,385.997c0,36.90191 -26.9909,66.81682 -60.28585,66.81682c-33.29495,0 -60.28585,-29.91491 -60.28585,-66.81682c0,-36.90191 26.9909,-66.81682 60.28585,-66.81682c33.29495,0 60.28585,29.91491 60.28585,66.81682z"/><path d="M985.28959,372.97898c0,36.90191 -26.99089,66.81682 -60.28585,66.81682c-33.29495,0 -60.28585,-29.91491 -60.28585,-66.81682c0,-36.90191 26.9909,-66.81682 60.28585,-66.81682c33.29496,0 60.28585,29.91491 60.28585,66.81682z"/><path d="M1023.57788,365.87462c0,21.56066 -17.14225,39.03904 -38.28829,39.03904c-21.14604,0 -38.28828,-17.47838 -38.28828,-39.03904c0,-21.56066 17.14225,-39.03904 38.28828,-39.03904c21.14604,0 38.28829,17.47838 38.28829,39.03904z"/><path d="M1099.96171,389.89865c0,22.38992 -18.48674,40.54054 -41.29129,40.54054c-22.80455,0 -41.29129,-18.15062 -41.29129,-40.54054c0,-22.38992 18.48674,-40.54054 41.29129,-40.54054c22.80455,0 41.29129,18.15062 41.29129,40.54054z"/><path d="M1154.96171,365.87462c0,22.38992 -18.48674,40.54054 -41.29129,40.54054c-22.80455,0 -41.29129,-18.15062 -41.29129,-40.54054c0,-22.38992 18.48674,-40.54054 41.29129,-40.54054c22.80455,0 41.29129,18.15062 41.29129,40.54054z"/><path d="M1256.96171,373.48949c0,22.38992 -18.48674,40.54054 -41.29129,40.54054c-22.80455,0 -41.29129,-18.15062 -41.29129,-40.54054c0,-22.38992 18.48674,-40.54054 41.29129,-40.54054c22.80455,0 41.29129,18.15062 41.29129,40.54054z"/><path d="M1362.96171,373.48949c0,22.38992 -18.48674,40.54054 -41.29129,40.54054c-22.80455,0 -41.29129,-18.15062 -41.29129,-40.54054c0,-22.38992 18.48674,-40.54054 41.29129,-40.54054c22.80455,0 41.29129,18.15062 41.29129,40.54054z"/><path d="M1317.24756,414.03003c0,36.90191 -26.99089,66.81681 -60.28585,66.81681c-33.29495,0 -60.28585,-29.9149 -60.28585,-66.81681c0,-36.90191 26.99089,-66.81682 60.28585,-66.81682c33.29495,0 60.28585,29.91491 60.28585,66.81682z"/></g></g></svg>