<svg version="1.1" xmlns="http://www.w3.org/2000/svg" xmlns:xlink="http://www.w3.org/1999/xlink" width="67.13309" height="63.81986" viewBox="0,0,67.13309,63.81986"><defs><linearGradient x1="288.95608" y1="161.09303" x2="289.05418" y2="161.09303" gradientUnits="userSpaceOnUse" id="color-1"><stop offset="0" stop-color="#3e2abd"/><stop offset="1" stop-color="#a8c5ff"/></linearGradient><linearGradient x1="320" y1="172.94505" x2="320" y2="187.05495" gradientTransform="translate(-990.56103,-600.27307) scale(3.27075,3.27075)" gradientUnits="userSpaceOnUse" id="color-2"><stop offset="0" stop-color="#aba7ff"/><stop offset="1" stop-color="#3126ff"/></linearGradient><linearGradient x1="320" y1="172.94505" x2="320" y2="187.05495" gradientTransform="translate(-990.56103,-600.27307) scale(3.27075,3.27075)" gradientUnits="userSpaceOnUse" id="color-3"><stop offset="0" stop-color="#ffffff"/><stop offset="1" stop-color="#6962ff"/></linearGradient></defs><g transform="translate(-286.43346,-148.09008)"><g stroke-miterlimit="10"><path d="M319.99894,211.4044l-31.70243,-31.40335l31.70456,-31.40544l31.70241,31.40335z" fill="#000000" stroke="#83aaff" stroke-width="0"/><path d="M318.10918,209.90896l-29.90795,-29.90795l29.90996,-29.90995l29.90794,29.90795z" fill="none" stroke="#83aaff" stroke-width="2.5"/><path d="M321.88883,209.90896l-29.90795,-29.90795l29.90996,-29.90995l29.90795,29.90795z" fill="none" stroke="#83aaff" stroke-width="2.5"/><path d="M319.99919,209.90895l-23.92635,-29.90795l23.92797,-29.90995l23.92636,29.90795z" fill="#191380" stroke="#83aaff" stroke-width="2.5"/><path d="M289.05418,161.09303v0h-0.0981v0z" fill="url(#color-1)" stroke="none" stroke-width="0"/><path d="M319.99921,209.90896l-23.92635,-29.90795l23.92797,-29.90995l23.92636,29.90795z" fill="none" stroke="#83aaff" stroke-width="2.5"/><text transform="translate(302.85411,183.52747) scale(0.30574,0.30574)" font-size="40" xml:space="preserve" fill="url(#color-2)" stroke="url(#color-3)" stroke-width="1" font-family="&quot;Ulm Grotesk Regular&quot;, Sans Serif" font-weight="normal" text-anchor="start"><tspan x="0" dy="0">menu</tspan></text></g></g></svg>