<svg version="1.1" xmlns="http://www.w3.org/2000/svg" xmlns:xlink="http://www.w3.org/1999/xlink" width="124.41646" height="149.20455" viewBox="0,0,124.41646,149.20455"><defs><linearGradient x1="305.8499" y1="-176.77778" x2="334.15013" y2="536.77777" gradientUnits="userSpaceOnUse" id="color-1"><stop offset="0" stop-color="#bbd1e5"/><stop offset="0.4717" stop-color="#e5f3ff"/><stop offset="0.48113" stop-color="#d0e9ff"/><stop offset="1" stop-color="#bddaf5"/></linearGradient><linearGradient x1="320.00003" y1="107.02271" x2="320.00003" y2="252.97728" gradientUnits="userSpaceOnUse" id="color-2"><stop offset="0" stop-color="#b4b4b4"/><stop offset="1" stop-color="#d6d6d6"/></linearGradient><linearGradient x1="320.00003" y1="107.02271" x2="320.00003" y2="252.97728" gradientUnits="userSpaceOnUse" id="color-3"><stop offset="0" stop-color="#cacaca"/><stop offset="1" stop-color="#f1f1f1"/></linearGradient><linearGradient x1="319.62503" y1="111.04998" x2="319.62503" y2="167.54998" gradientUnits="userSpaceOnUse" id="color-4"><stop offset="0" stop-color="#ffffff" stop-opacity="0"/><stop offset="1" stop-color="#ffffff" stop-opacity="0.17647"/></linearGradient></defs><g transform="translate(-258.25,-106.02272)"><g stroke-miterlimit="10"><path d="M261.37689,254.97728c0,0 -0.46022,-11.73455 -0.46022,-20.6769c0,-29.29915 0,-87.82705 0,-104.60076c0,-7.29773 0.46022,-20.6769 0.46022,-20.6769c0,0 6.84155,0 13.80682,0c13.28541,0 92.21826,0 92.96591,0c10.48242,0 14.26704,0 14.26704,0c0,0 -0.46022,11.46533 -0.46022,20.06875c0,29.57423 0,91.11031 0,108.85777c0,8.32612 0.46022,17.02803 0.46022,17.02803c0,0 -6.05903,0 -14.72728,0c-26.25913,0 -80.68643,0 -92.9659,0c-4.55771,0 -13.3466,0 -13.3466,0z" fill-opacity="0.04706" fill="#000000" stroke-opacity="0.00784" stroke="#000000" stroke-width="0.5" stroke-linejoin="bevel"/><path d="M259.71022,252.97728c0,0 -0.46022,-11.73455 -0.46022,-20.6769c0,-29.29915 0,-87.82705 0,-104.60076c0,-7.29773 0.46022,-20.6769 0.46022,-20.6769c0,0 6.84155,0 13.80682,0c13.28541,0 92.21826,0 92.96591,0c10.48242,0 14.26704,0 14.26704,0c0,0 -0.46022,11.46533 -0.46022,20.06875c0,29.57423 0,91.11031 0,108.85777c0,8.32612 0.46022,17.02803 0.46022,17.02803c0,0 -6.05903,0 -14.72728,0c-26.25913,0 -80.68643,0 -92.9659,0c-4.55771,0 -13.3466,0 -13.3466,0z" fill="url(#color-1)" stroke="url(#color-2)" stroke-width="0" stroke-linejoin="bevel"/><path d="M259.71022,252.97728c0,0 -0.46022,-11.73455 -0.46022,-20.6769c0,-29.29915 0,-87.82705 0,-104.60076c0,-7.29773 0.46022,-20.6769 0.46022,-20.6769c0,0 6.84155,0 13.80682,0c13.28541,0 92.21826,0 92.96591,0c10.48242,0 14.26704,0 14.26704,0c0,0 -0.46022,11.46533 -0.46022,20.06875c0,29.57423 0,91.11031 0,108.85777c0,8.32612 0.46022,17.02803 0.46022,17.02803c0,0 -6.05903,0 -14.72728,0c-26.25913,0 -80.68643,0 -92.9659,0c-4.55771,0 -13.3466,0 -13.3466,0z" fill-opacity="0.12157" fill="#cfe8ff" stroke="url(#color-3)" stroke-width="2" stroke-linejoin="bevel"/><text transform="translate(265.52236,178.96942) scale(0.28074,0.28074)" font-size="40" xml:space="preserve" fill="#3d4c58" stroke="none" stroke-width="1" stroke-linejoin="miter" font-family="&quot;Ulm Grotesk Regular&quot;, Sans Serif" font-weight="normal" text-anchor="start"><tspan x="0" dy="0">title</tspan></text><text transform="translate(265.91299,183.24131) scale(0.14879,0.14879)" font-size="40" xml:space="preserve" fill="#3d4c58" stroke="none" stroke-width="1" stroke-linejoin="miter" font-family="&quot;Ulm Grotesk Regular&quot;, Sans Serif" font-weight="normal" text-anchor="start"><tspan x="0" dy="0">year - creator</tspan></text><path d="M263.90002,244.79812v-52.5h112.2v52.5z" fill-opacity="0.42745" fill="#ffffff" stroke-opacity="0.2" stroke="#000000" stroke-width="0.5" stroke-linejoin="miter"/><text transform="translate(265.52236,196.67832) scale(0.10092,0.10092)" font-size="40" xml:space="preserve" fill="#212325" stroke="none" stroke-width="1" stroke-linejoin="miter" font-family="&quot;Ulm Grotesk Regular&quot;, Sans Serif" font-weight="normal" text-anchor="start"><tspan x="0" dy="0">Lorem Ipsum is simply dummy text of the printing</tspan><tspan x="0" dy="46.150000000000006px">and typesetting industry. Lorem Ipsum has been the</tspan><tspan x="0" dy="46.150000000000006px">industry's standard dummy text ever since the </tspan><tspan x="0" dy="46.150000000000006px">1500s, when an unknown printer took a galley of</tspan><tspan x="0" dy="46.150000000000006px">type and scrambled it to make a type specimen</tspan><tspan x="0" dy="46.150000000000006px">book. It has survived not only five centuries, but</tspan><tspan x="0" dy="46.150000000000006px">also the leap into electronic typesetting, remaining</tspan><tspan x="0" dy="46.150000000000006px">essentially unchanged. It was popularised in the</tspan><tspan x="0" dy="46.150000000000006px">1960s with the release of Letraset sheets </tspan><tspan x="0" dy="46.150000000000006px">containing Lorem Ipsum passages, and more </tspan><tspan x="0" dy="46.150000000000006px">recently with desktop publishing software like...</tspan></text><path d="M263.62503,167.54998v-56.5h112v56.5z" fill="#000000" stroke="none" stroke-width="NaN" stroke-linejoin="miter"/><path d="M263.62503,167.54998v-56.5h112v56.5z" fill="url(#color-4)" stroke="none" stroke-width="NaN" stroke-linejoin="miter"/><text transform="translate(304.76428,155.22762) scale(0.17314,0.17314)" font-size="40" xml:space="preserve" fill="#e3f1ff" stroke="none" stroke-width="1" stroke-linejoin="miter" font-family="Archivo" font-weight="normal" text-anchor="start"><tspan x="0" dy="0">placeholder thumbnail</tspan><tspan x="0" dy="46.150000000000006px">1280x720</tspan></text><text transform="translate(265.91299,186.84427) scale(0.08023,0.08023)" font-size="40" xml:space="preserve" fill="#3d4c58" stroke="none" stroke-width="1" stroke-linejoin="miter" font-family="&quot;Ulm Grotesk Regular&quot;, Sans Serif" font-weight="normal" text-anchor="start"><tspan x="0" dy="0">genre - resolutuion - codec info - file type</tspan></text></g></g></svg>