<svg version="1.1" xmlns="http://www.w3.org/2000/svg" xmlns:xlink="http://www.w3.org/1999/xlink" width="460.3379" height="562" viewBox="0,0,460.3379,562"><defs><linearGradient x1="161.96838" y1="180.61893" x2="602.3379" y2="180.61893" gradientUnits="userSpaceOnUse" id="color-1"><stop offset="0" stop-color="#0c00ae"/><stop offset="1" stop-color="#010011"/></linearGradient><linearGradient x1="400.70216" y1="180.61892" x2="418.20618" y2="180.61892" gradientUnits="userSpaceOnUse" id="color-2"><stop offset="0" stop-color="#42b7ff"/><stop offset="1" stop-color="#050045"/></linearGradient><linearGradient x1="409.6" y1="200.5" x2="453.1" y2="200.5" gradientUnits="userSpaceOnUse" id="color-3"><stop offset="0" stop-color="#000000" stop-opacity="0.21176"/><stop offset="1" stop-color="#000000" stop-opacity="0"/></linearGradient><linearGradient x1="231" y1="199.83333" x2="409" y2="199.83333" gradientUnits="userSpaceOnUse" id="color-4"><stop offset="0" stop-color="#001278"/><stop offset="1" stop-color="#2575a6"/></linearGradient><radialGradient cx="232.5" cy="366.25" r="89" gradientUnits="userSpaceOnUse" id="color-5"><stop offset="0" stop-color="#5db9ff" stop-opacity="0.2549"/><stop offset="1" stop-color="#5db9ff" stop-opacity="0"/></radialGradient><radialGradient cx="325" cy="105.99106" r="89" gradientUnits="userSpaceOnUse" id="color-6"><stop offset="0" stop-color="#95d1ff" stop-opacity="0.2549"/><stop offset="1" stop-color="#95d1ff" stop-opacity="0"/></radialGradient></defs><g transform="translate(-143.5,65.75)"><g stroke-miterlimit="10"><path d="M602.3379,180.70652l-440.36952,-0.17519" fill="#010011" stroke="url(#color-1)" stroke-width="3" stroke-linecap="round"/><path d="M236,364v-325h178v325z" fill-opacity="0.20784" fill="#000521" stroke-opacity="0.4549" stroke="#000000" stroke-width="0" stroke-linecap="butt"/><path d="M400.70216,180.61892c0,-4.62474 3.91841,-8.37384 8.75201,-8.37384c4.8336,0 8.75201,3.74909 8.75201,8.37384c0,4.62474 -3.91841,8.37384 -8.75201,8.37384c-4.8336,0 -8.75201,-3.7491 -8.75201,-8.37384z" fill="url(#color-2)" stroke="#000000" stroke-width="0" stroke-linecap="butt"/><path d="M409.6,363v-325h43.5v325z" fill="url(#color-3)" stroke="none" stroke-width="NaN" stroke-linecap="butt"/><path d="M231,362.33333v-325h178v325z" fill="url(#color-4)" stroke="#010011" stroke-width="0.5" stroke-linecap="butt"/><path d="M143.5,496.25v-260h178v260z" fill="url(#color-5)" stroke="none" stroke-width="0" stroke-linecap="butt"/><path d="M236,277.73212v-343.48211h178v343.48212z" fill="url(#color-6)" stroke="none" stroke-width="0" stroke-linecap="butt"/></g></g></svg>