<svg version="1.1" xmlns="http://www.w3.org/2000/svg" xmlns:xlink="http://www.w3.org/1999/xlink" width="89.9789" height="90.0263" viewBox="0,0,89.9789,90.0263"><defs><linearGradient x1="288.95608" y1="161.09303" x2="289.05419" y2="161.09303" gradientUnits="userSpaceOnUse" id="color-1"><stop offset="0" stop-color="#3e2abd"/><stop offset="1" stop-color="#a8c5ff"/></linearGradient><linearGradient x1="320.00011" y1="171.52677" x2="320.00011" y2="188.81963" gradientTransform="translate(-797.91435,-492.37137) scale(2.66873,2.66873)" gradientUnits="userSpaceOnUse" id="color-2"><stop offset="0" stop-color="#c8c5ff"/><stop offset="1" stop-color="#564dff"/></linearGradient><linearGradient x1="320.00011" y1="171.52677" x2="320.00011" y2="188.81963" gradientTransform="translate(-797.91435,-492.37137) scale(2.66873,2.66873)" gradientUnits="userSpaceOnUse" id="color-3"><stop offset="0" stop-color="#ffffff"/><stop offset="1" stop-color="#a7a3ff"/></linearGradient></defs><g transform="translate(-275.01058,-134.98687)"><g stroke-miterlimit="10"><path d="M323.87409,217.11025l-26.58564,-33.23206l26.58744,-33.23428l26.58565,33.23206z" fill-opacity="0.0902" fill="#000000" stroke="#83aaff" stroke-width="0"/><path d="M289.3807,162.86867v0h0.109v0z" fill-opacity="0.0902" fill="#000000" stroke="none" stroke-width="0"/><g fill-opacity="0.12941" fill="#000000" stroke="#83aaff" stroke-width="0"><path d="M319.99865,220.52459l-2.18261,-2.16202l-0.25609,0.23229l-42.54937,-38.59353l42.55223,-38.59611l0.25603,0.23222l2.18256,-2.16197l40.90912,40.52321z"/><path d="M319.99865,220.52459l-40.90915,-40.52321l40.91189,-40.52591l2.18261,2.16202l0.25609,-0.23228l42.54937,38.59353l-42.55223,38.59611l-0.25604,-0.23224z"/><path d="M319.99865,220.52459l-40.90915,-40.52321l40.91189,-40.52591l40.90912,40.52321z"/><path d="M319.99865,220.52459l-40.90915,-40.52321l40.91189,-40.52591l40.90912,40.52321z"/><path d="M279.08951,180.00138l28.84277,-28.57065l12.06889,-16.44385l12.06768,16.44221l28.84167,28.5696l-28.84262,28.57052l-12.06898,16.44396l-12.06745,-16.44191z"/></g><path d="M319.99895,211.40443l-31.70243,-31.40335l31.70456,-31.40544l31.70241,31.40335z" fill="#000000" stroke="#83aaff" stroke-width="0"/><path d="M318.10909,209.90899l-32.97352,-29.90795l32.97573,-29.90995l32.97351,29.90795z" fill="none" stroke="#83aaff" stroke-width="2.5"/><path d="M321.88874,209.90899l-32.97352,-29.90795l32.97573,-29.90995l32.97352,29.90795z" fill="none" stroke="#83aaff" stroke-width="2.5"/><path d="M319.9992,209.90898l-23.92635,-29.90795l23.92797,-29.90995l23.92636,29.90795z" fill="#271fbd" stroke="#83aaff" stroke-width="2.5"/><path d="M288.95608,161.09303v0h0.0981v0z" fill="url(#color-1)" stroke="none" stroke-width="0"/><path d="M319.99915,214.88284l-25.60119,-34.88165l25.60293,-34.88398l25.60121,34.88165z" fill="none" stroke="#83aaff" stroke-width="2.5"/><text transform="translate(298.98649,184.49648) scale(0.37471,0.37471)" font-size="40" xml:space="preserve" fill="url(#color-2)" stroke="url(#color-3)" stroke-width="1" font-family="&quot;Ulm Grotesk Regular&quot;, Sans Serif" font-weight="normal" text-anchor="start"><tspan x="0" dy="0">menu</tspan></text></g></g></svg>