<svg version="1.1" xmlns="http://www.w3.org/2000/svg" xmlns:xlink="http://www.w3.org/1999/xlink" width="1919.74854" height="1077.13183" viewBox="0,0,1919.74854,1077.13183"><defs><linearGradient x1="320.00001" y1="344.79474" x2="320.00001" y2="704.79474" gradientUnits="userSpaceOnUse" id="color-1"><stop offset="0" stop-color="#d9d8e0"/><stop offset="1" stop-color="#d9d8e0" stop-opacity="0"/></linearGradient><radialGradient cx="15.00002" cy="53.2307" r="190.75" gradientUnits="userSpaceOnUse" id="color-2"><stop offset="0" stop-color="#eae9f7" stop-opacity="0.41176"/><stop offset="1" stop-color="#eae9f7" stop-opacity="0"/></radialGradient><linearGradient x1="320.00001" y1="-357.08709" x2="320.00001" y2="2.91291" gradientUnits="userSpaceOnUse" id="color-3"><stop offset="0" stop-color="#000000" stop-opacity="0"/><stop offset="1" stop-color="#000000"/></linearGradient><linearGradient x1="-297.7959" y1="718.69092" x2="-341.99829" y2="358.69092" gradientUnits="userSpaceOnUse" id="color-4"><stop offset="0" stop-color="#f2f0ff"/><stop offset="1" stop-color="#9898a6"/></linearGradient><linearGradient x1="-297.7959" y1="-1.10382" x2="-341.99829" y2="358.89618" gradientUnits="userSpaceOnUse" id="color-5"><stop offset="0" stop-color="#f2f0ff"/><stop offset="1" stop-color="#9898a6"/></linearGradient><linearGradient x1="-297.7959" y1="1.80909" x2="-341.99829" y2="-358.19091" gradientUnits="userSpaceOnUse" id="color-6"><stop offset="0" stop-color="#f2f0ff"/><stop offset="1" stop-color="#9898a6"/></linearGradient><linearGradient x1="981.95259" y1="718.44091" x2="937.75015" y2="358.44091" gradientUnits="userSpaceOnUse" id="color-7"><stop offset="0" stop-color="#f2f0ff"/><stop offset="1" stop-color="#9898a6"/></linearGradient><linearGradient x1="981.95259" y1="-1.35382" x2="937.75015" y2="358.64618" gradientUnits="userSpaceOnUse" id="color-8"><stop offset="0" stop-color="#f2f0ff"/><stop offset="1" stop-color="#9898a6"/></linearGradient><linearGradient x1="981.95259" y1="1.55909" x2="937.75015" y2="-358.44091" gradientUnits="userSpaceOnUse" id="color-9"><stop offset="0" stop-color="#f2f0ff"/><stop offset="1" stop-color="#9898a6"/></linearGradient><radialGradient cx="107.00002" cy="157.2307" r="190.75" gradientUnits="userSpaceOnUse" id="color-10"><stop offset="0" stop-color="#e9e9f7" stop-opacity="0.0902"/><stop offset="1" stop-color="#e9e9f7" stop-opacity="0"/></radialGradient><linearGradient x1="297.89878" y1="0" x2="342.10124" y2="360" gradientUnits="userSpaceOnUse" id="color-11"><stop offset="0" stop-color="#f2f0ff"/><stop offset="1" stop-color="#b3b3c3"/></linearGradient></defs><g transform="translate(639.89714,358.44091)"><g stroke-miterlimit="10"><path d="M640.00001,344.79474v360h-640v-360z" fill="url(#color-1)" stroke="#000000" stroke-width="0"/><path d="M205.75002,53.2307c0,99.53867 -85.40168,180.2307 -190.75,180.2307c-105.34832,0 -190.75,-80.69203 -190.75,-180.2307c0,-99.53867 85.40168,-180.2307 190.75,-180.2307c105.34832,0 190.75,80.69203 190.75,180.2307z" fill="url(#color-2)" stroke="none" stroke-width="0"/><path d="M640.00001,-357.08709v360h-640v-360z" fill="url(#color-3)" stroke="#000000" stroke-width="0"/><path d="M0.10289,358.69092v360h-640v-360z" fill="url(#color-4)" stroke="#000000" stroke-width="0"/><path d="M-639.89714,358.89618v-360h640v360z" fill="url(#color-5)" stroke="#000000" stroke-width="0"/><path d="M0.10289,-358.19091v360h-640v-360z" fill="url(#color-6)" stroke="#000000" stroke-width="0"/><path d="M1279.8514,358.44091v360h-640v-360z" fill="url(#color-7)" stroke="#000000" stroke-width="0"/><path d="M639.85137,358.64618v-360h640v360z" fill="url(#color-8)" stroke="#000000" stroke-width="0"/><path d="M1279.8514,-358.44091v360h-640v-360z" fill="url(#color-9)" stroke="#000000" stroke-width="0"/><path d="M297.75001,157.2307c0,99.53866 -85.40169,180.2307 -190.75,180.2307c-105.34832,0 -190.75,-80.69203 -190.75,-180.2307c0,-99.53866 85.40168,-180.2307 190.75,-180.2307c105.34831,0 190.75,80.69204 190.75,180.2307z" fill="url(#color-10)" stroke="none" stroke-width="0"/><path d="M0,360v-360h640v360z" fill="url(#color-11)" stroke="#000000" stroke-width="0"/><text transform="translate(531.50001,-95.26875) scale(0.5,0.5)" font-size="40" xml:space="preserve" fill-opacity="0.18431" fill="#ffffff" stroke="none" stroke-width="1" font-family="&quot;Ulm Grotesk Regular&quot;, Sans Serif" font-weight="normal" text-anchor="start"><tspan x="0" dy="0">hiiiii :3</tspan></text></g></g></svg>