<svg version="1.1" xmlns="http://www.w3.org/2000/svg" xmlns:xlink="http://www.w3.org/1999/xlink" width="89.97888" height="90.02629" viewBox="0,0,89.97888,90.02629"><defs><linearGradient x1="288.95608" y1="161.09303" x2="289.05421" y2="161.09303" gradientUnits="userSpaceOnUse" id="color-1"><stop offset="0" stop-color="#3e2abd"/><stop offset="1" stop-color="#a8c5ff"/></linearGradient><radialGradient cx="320.00014" cy="179.99997" r="29.90895" gradientUnits="userSpaceOnUse" id="color-2"><stop offset="0" stop-color="#8974ff"/><stop offset="1" stop-color="#8974ff" stop-opacity="0"/></radialGradient><linearGradient x1="291.40738" y1="179.99974" x2="354.18001" y2="179.99974" gradientTransform="translate(-571.55588,-365.04495) scale(1.96136,1.96136)" gradientUnits="userSpaceOnUse" id="color-3"><stop offset="0" stop-color="#c8c5ff"/><stop offset="1" stop-color="#f70dff"/></linearGradient><linearGradient x1="319.99949" y1="168.47064" x2="319.99949" y2="192.00019" gradientTransform="translate(-571.55588,-365.04495) scale(1.96136,1.96136)" gradientUnits="userSpaceOnUse" id="color-4"><stop offset="0" stop-color="#ffffff"/><stop offset="1" stop-color="#a7a3ff"/></linearGradient></defs><g transform="translate(-275.0106,-134.98688)"><g stroke-miterlimit="10"><path d="M323.87412,217.11025l-26.58564,-33.23206l26.58744,-33.23428l26.58565,33.23206z" fill-opacity="0.0902" fill="#000000" stroke="#83aaff" stroke-width="0"/><path d="M289.48973,162.86867v0h-0.109v0z" fill-opacity="0.0902" fill="#000000" stroke="none" stroke-width="0"/><g fill-opacity="0.12941" fill="#000000" stroke="#83aaff" stroke-width="0"><path d="M319.99867,220.52459l-2.18261,-2.16202l-0.25609,0.23229l-42.54937,-38.59353l42.55223,-38.59611l0.25603,0.23222l2.18256,-2.16197l40.90912,40.52321z"/><path d="M319.99867,220.52459l-40.90915,-40.52321l40.91189,-40.52591l2.18261,2.16202l0.25609,-0.23228l42.54937,38.59353l-42.55223,38.59611l-0.25604,-0.23224z"/><path d="M319.99867,220.52459l-40.90915,-40.52321l40.91189,-40.52591l40.90912,40.52321z"/><path d="M319.99867,220.52459l-40.90915,-40.52321l40.91189,-40.52591l40.90912,40.52321z"/><path d="M279.08952,180.00138l28.84277,-28.57065l12.06889,-16.44385l12.06768,16.44221l28.84167,28.5696l-28.84262,28.57052l-12.06898,16.44396l-12.06745,-16.44191z"/></g><path d="M319.99897,211.40443l-31.70243,-31.40335l31.70456,-31.40544l31.70241,31.40335z" fill="#000000" stroke="#83aaff" stroke-width="0"/><path d="M318.10911,209.90899l-32.97352,-29.90795l32.97573,-29.90995l32.97351,29.90795z" fill="none" stroke="#83aaff" stroke-width="2.5"/><path d="M321.88874,209.90899l-32.97352,-29.90795l32.97573,-29.90995l32.97352,29.90795z" fill="none" stroke="#83aaff" stroke-width="2.5"/><path d="M319.99923,209.90898l-23.92635,-29.90795l23.92797,-29.90995l23.92636,29.90795z" fill="#271fbd" stroke="#83aaff" stroke-width="2.5"/><path d="M289.05421,161.09303v0h-0.0981v0z" fill="url(#color-1)" stroke="none" stroke-width="0"/><path d="M319.99915,214.88284l-25.60119,-34.88165l25.60293,-34.88398l25.60121,34.88165z" fill="none" stroke="#83aaff" stroke-width="2.5"/><path d="M319.99933,209.90892l-23.92635,-29.90795l23.92797,-29.90995l23.92636,29.90795z" fill="url(#color-2)" stroke="#83aaff" stroke-width="0"/><text transform="translate(291.40777,186.11817) scale(0.50985,0.50985)" font-size="40" xml:space="preserve" fill="url(#color-3)" stroke="url(#color-4)" stroke-width="1" font-family="&quot;Ulm Grotesk Regular&quot;, Sans Serif" font-weight="normal" text-anchor="start"><tspan x="0" dy="0">menu</tspan></text></g></g></svg>